<svg xmlns="http://www.w3.org/2000/svg" viewBox="0 0 512 512" width="512" height="512">
  <defs>
    <linearGradient id="bgGrad" x1="0%" y1="0%" x2="0%" y2="100%">
      <stop offset="0%" style="stop-color:#A8D5BA;stop-opacity:1" />
      <stop offset="100%" style="stop-color:#E8F0E5;stop-opacity:1" />
    </linearGradient>
    <linearGradient id="treeGrad1" x1="0%" y1="0%" x2="0%" y2="100%">
      <stop offset="0%" style="stop-color:#5A8F69;stop-opacity:1" />
      <stop offset="100%" style="stop-color:#2D5A3D;stop-opacity:1" />
    </linearGradient>
    <linearGradient id="treeGrad2" x1="0%" y1="0%" x2="0%" y2="100%">
      <stop offset="0%" style="stop-color:#7FB069;stop-opacity:1" />
      <stop offset="100%" style="stop-color:#4A7C59;stop-opacity:1" />
    </linearGradient>
  </defs>
  
  <rect width="512" height="512" rx="96" fill="url(#bgGrad)"/>
  
  <g transform="translate(256, 380)">
    <ellipse cx="0" cy="0" rx="140" ry="20" fill="#8B6F47" opacity="0.2"/>
  </g>
  
  <g transform="translate(170, 280)">
    <rect x="-12" y="40" width="24" height="60" rx="6" fill="#8B6F47"/>
    <polygon points="0,-80 -70,40 70,40" fill="url(#treeGrad1)"/>
    <polygon points="0,-40 -55,50 55,50" fill="url(#treeGrad2)" opacity="0.9"/>
    <polygon points="0,0 -40,60 40,60" fill="#5A8F69" opacity="0.8"/>
  </g>
  
  <g transform="translate(340, 300)">
    <rect x="-10" y="30" width="20" height="50" rx="5" fill="#8B6F47"/>
    <polygon points="0,-60 -55,30 55,30" fill="url(#treeGrad2)"/>
    <polygon points="0,-25 -42,40 42,40" fill="url(#treeGrad1)" opacity="0.85"/>
    <polygon points="0,10 -30,50 30,50" fill="#7FB069" opacity="0.7"/>
  </g>
  
  <g transform="translate(256, 200)">
    <circle cx="-25" cy="-15" r="12" fill="#FFD166" opacity="0.9"/>
    <circle cx="0" cy="-25" r="15" fill="#FFD166" opacity="0.95"/>
    <circle cx="25" cy="-15" r="12" fill="#FFD166" opacity="0.9"/>
    <circle cx="-15" cy="5" r="10" fill="#FFD166" opacity="0.85"/>
    <circle cx="15" cy="5" r="10" fill="#FFD166" opacity="0.85"/>
    <circle cx="0" cy="20" r="8" fill="#FFD166" opacity="0.8"/>
  </g>
  
  <g transform="translate(100, 100)">
    <ellipse cx="0" cy="0" rx="20" ry="10" fill="white" opacity="0.6"/>
    <ellipse cx="-15" cy="5" rx="15" ry="8" fill="white" opacity="0.5"/>
    <ellipse cx="15" cy="5" rx="12" ry="7" fill="white" opacity="0.5"/>
  </g>
  
  <g transform="translate(400, 130)">
    <ellipse cx="0" cy="0" rx="18" ry="9" fill="white" opacity="0.5"/>
    <ellipse cx="-13" cy="4" rx="13" ry="7" fill="white" opacity="0.4"/>
    <ellipse cx="13" cy="4" rx="10" ry="6" fill="white" opacity="0.4"/>
  </g>
</svg>